<?xml version="1.0" encoding="utf-8"?>
<!-- Generator: Adobe Illustrator 16.0.0, SVG Export Plug-In . SVG Version: 6.00 Build 0)  -->
<!DOCTYPE svg PUBLIC "-//W3C//DTD SVG 1.1//EN" "http://www.w3.org/Graphics/SVG/1.1/DTD/svg11.dtd">
<svg version="1.1" id="图层_1" xmlns="http://www.w3.org/2000/svg" xmlns:xlink="http://www.w3.org/1999/xlink" x="0px" y="0px"
	 width="200px" height="200px" viewBox="0 0 200 200" enable-background="new 0 0 200 200" xml:space="preserve">
<path fill="#FFFFFF" d="M100,109.125L7.05,29.25c0.5-0.112,0.95-0.325,1.463-0.325H191.5c0.313,0,0.975,0.225,1.475,0.313
	L100,109.125z M199.8,40.3v120.075c0,0.75-0.225,1.4-0.399,2.088l-66-68.075L199.3,37.75C199.563,38.563,199.8,39.4,199.8,40.3z
	 M0.7,37.737l65.925,56.65l-66,68.075c-0.163-0.676-0.413-1.338-0.413-2.088V40.3c0-0.912,0.25-1.737,0.5-2.563H0.7z
	 M126.975,101.975l66.551,68.625c-0.663,0.176-1.313,0.426-2.038,0.426H8.513c-0.7,0-1.35-0.25-2-0.426l66.537-68.625l24.288,20.875
	c1.523,1.337,3.801,1.337,5.325,0L126.975,101.975L126.975,101.975z"/>
</svg>
