<?xml version="1.0" encoding="utf-8"?>
<!-- Generator: Adobe Illustrator 16.0.0, SVG Export Plug-In . SVG Version: 6.00 Build 0)  -->
<!DOCTYPE svg PUBLIC "-//W3C//DTD SVG 1.1//EN" "http://www.w3.org/Graphics/SVG/1.1/DTD/svg11.dtd">
<svg version="1.1" id="图层_1" xmlns="http://www.w3.org/2000/svg" xmlns:xlink="http://www.w3.org/1999/xlink" x="0px" y="0px"
	 width="162.5px" height="129.16px" viewBox="18.75 35.42 162.5 129.16" enable-background="new 18.75 35.42 162.5 129.16"
	 xml:space="preserve">
<path fill="#676666" d="M40,164.58c-11.736,0-21.25-9.514-21.25-21.25V56.67c0-11.74,9.51-21.25,21.25-21.25h120
	c11.74,0,21.25,9.51,21.25,21.25v86.66c0,11.736-9.514,21.25-21.25,21.25H40z M40,152.08h120c4.832,0,8.75-3.918,8.75-8.75V56.67
	c0-4.833-3.918-8.75-8.75-8.75H40c-4.833,0-8.75,3.917-8.75,8.75v86.66C31.25,148.17,35.17,152.08,40,152.08z"/>
<path fill="#676666" d="M27.26,75.62c-3.104-1.513-4.394-5.256-2.88-8.36c1.513-3.104,5.256-4.393,8.36-2.88l65.62,32.03
	c1.03,0.5,2.25,0.5,3.281,0l65.619-32.03c3.104-1.513,6.848-0.224,8.36,2.88c1.513,3.104,0.224,6.847-2.88,8.36l0,0l-65.61,32.021
	c-4.5,2.199-9.76,2.199-14.26,0L27.26,75.62z"/>
</svg>
