<?xml version="1.0" encoding="utf-8"?>
<!-- Generator: Adobe Illustrator 16.0.0, SVG Export Plug-In . SVG Version: 6.00 Build 0)  -->
<!DOCTYPE svg PUBLIC "-//W3C//DTD SVG 1.1//EN" "http://www.w3.org/Graphics/SVG/1.1/DTD/svg11.dtd">
<svg version="1.1" id="图层_1" xmlns="http://www.w3.org/2000/svg" xmlns:xlink="http://www.w3.org/1999/xlink" x="0px" y="0px"
	 width="184.704px" height="172.223px" viewBox="0 0 184.704 172.223" enable-background="new 0 0 184.704 172.223"
	 xml:space="preserve">
<path fill="#2194D3" d="M129.332,93.112c-11.965,0-21.666,9.701-21.666,21.667s9.701,21.667,21.666,21.667
	c11.967,0,21.667-9.701,21.667-21.667S141.299,93.112,129.332,93.112L129.332,93.112L129.332,93.112z M129.332,125.334
	c-5.829,0-10.555-4.727-10.555-10.556s4.726-10.556,10.555-10.556c5.83,0,10.557,4.727,10.557,10.556l0,0
	C139.889,120.607,135.162,125.334,129.332,125.334z"/>
<path fill="#2194D3" d="M184.666,111.111c-0.215-3.953-0.886-7.867-2-11.667c-0.434,0.482-0.94,0.895-1.5,1.222
	c-2.33,1.144-5.059,1.144-7.389,0c-1.027-0.437-1.997-0.997-2.889-1.667c-2.082-1.464-3.826-3.359-5.111-5.556
	c-1.27-2.256-2.045-4.755-2.278-7.333c-0.139-1.125-0.139-2.264,0-3.389c0.246-2.57,1.633-4.896,3.778-6.333
	c0.543-0.336,1.146-0.563,1.777-0.667c-2.771-2.845-5.844-5.379-9.166-7.555c-1.881-1.269-3.848-2.401-5.89-3.389
	c-3.552-1.751-7.274-3.128-11.11-4.111c0.171,0.521,0.265,1.063,0.277,1.611c-0.472,3.921-3.219,7.192-7,8.333
	c-4.426,1.849-9.408,1.849-13.834,0c-3.768-1.147-6.495-4.42-6.944-8.333c-0.078-0.534-0.078-1.077,0-1.611
	c-3.836,0.982-7.56,2.36-11.111,4.111c-1.917,0.98-3.771,2.075-5.556,3.278c-3.272,2.155-6.308,4.651-9.056,7.444
	c0.482,0.157,0.948,0.361,1.389,0.611c2.148,1.409,3.539,3.719,3.778,6.278c0.165,1.347,0.165,2.708,0,4.056
	c-0.353,2.298-1.105,4.516-2.222,6.555c-1.227,2.042-2.829,3.833-4.723,5.278c-1.018,0.811-2.139,1.483-3.333,2
	c-2.322,1.093-5.011,1.093-7.333,0c-0.462-0.326-0.891-0.698-1.278-1.111c-1.111,3.783-1.8,7.677-2.055,11.611v6.778
	c0.199,3.945,0.833,7.858,1.889,11.666c0.382-0.424,0.833-0.781,1.333-1.056c1.082-0.621,2.308-0.946,3.555-0.944
	c2.56,0.158,5.007,1.109,7,2.723c1.957,1.504,3.583,3.395,4.778,5.555c1.305,2.204,2.103,4.672,2.333,7.223
	c0.724,3.682-0.749,7.451-3.778,9.666c-0.582,0.296-1.198,0.52-1.833,0.667c2.664,2.862,5.625,5.433,8.833,7.667
	c1.929,1.285,3.932,2.453,6,3.5c3.539,1.795,7.265,3.191,11.111,4.166c-0.226-0.623-0.339-1.281-0.333-1.943
	c0.378-3.75,2.924-6.926,6.5-8.111c2.402-1.111,5.02-1.68,7.666-1.667c2.738-0.034,5.451,0.535,7.945,1.667
	c3.368,1.307,5.711,4.402,6.055,8c-0.021,0.736-0.152,1.467-0.389,2.166c3.847-0.947,7.574-2.326,11.111-4.111
	c2.145-1.002,4.206-2.173,6.166-3.5c3.342-2.194,6.434-4.746,9.223-7.611c-0.701-0.16-1.375-0.423-2-0.777
	c-2.962-2.096-4.471-5.695-3.889-9.277c0.454-5.447,3.33-10.402,7.833-13.5c1.868-1.339,4.092-2.093,6.389-2.166
	c1.242-0.018,2.468,0.289,3.556,0.889c0.627,0.392,1.189,0.879,1.667,1.443c1.114-3.855,1.786-7.825,1.999-11.832v-3.5
	C184.609,113.334,184.777,112.334,184.666,111.111L184.666,111.111z M173.555,117c-14.902,3.643-24.03,18.678-20.388,33.58
	c0.116,0.477,0.246,0.95,0.388,1.42c-1.339,0.864-2.73,1.644-4.166,2.334c-5.174-5.713-12.574-8.896-20.278-8.723
	c-7.565-0.107-14.826,2.979-20,8.5c-1.449-0.74-2.859-1.556-4.222-2.444c4.385-14.701-3.978-30.173-18.679-34.559
	c-0.327-0.098-0.656-0.188-0.987-0.274v-2.167v-2.722c1.289-0.287,2.552-0.678,3.778-1.167c5.711-2.384,10.462-6.608,13.5-12
	c3.166-5.333,4.457-11.571,3.667-17.722c-0.178-1.211-0.476-2.403-0.889-3.556c1.412-0.919,2.877-1.754,4.389-2.5
	c10.726,10.969,28.313,11.167,39.281,0.441c0.148-0.145,0.295-0.292,0.441-0.441c1.48,0.715,2.909,1.532,4.277,2.445
	c-0.426,1.267-0.742,2.568-0.945,3.889c-1.481,12.565,5.385,24.633,16.945,29.777c1.268,0.533,2.59,0.925,3.944,1.167v2.389
	c0,0.778,0.056,1.556,0,2.333H173.555z"/>
<path fill="#2194D3" d="M11.111,159.389V12.001c0.03-0.5,0.444-0.89,0.945-0.889h127.776c0.921,0,1.668,0.745,1.668,1.666
	c0,0.019,0,0.038-0.001,0.057v30h11.111v-30C152.642,5.777,146.946,0.031,139.889,0c-0.074,0-0.148,0-0.223,0.001H11.889
	C5.317,0.092,0.03,5.429,0,12.001v147.388c0,7.088,5.746,12.834,12.833,12.834h44.444v-11.111H12.833
	C11.882,161.111,11.111,160.34,11.111,159.389L11.111,159.389z"/>
<path fill="#2194D3" d="M19.889,32.223h70.944v11.111H19.889V32.223z M18.778,70.167h48.166v11.111H18.778V70.167z M18.778,108.057
	h32.389v11.11H18.778V108.057z"/>
</svg>
