<?xml version="1.0" encoding="utf-8"?>
<!-- Generator: Adobe Illustrator 16.0.0, SVG Export Plug-In . SVG Version: 6.00 Build 0)  -->
<!DOCTYPE svg PUBLIC "-//W3C//DTD SVG 1.1//EN" "http://www.w3.org/Graphics/SVG/1.1/DTD/svg11.dtd">
<svg version="1.1" id="图层_1" xmlns="http://www.w3.org/2000/svg" xmlns:xlink="http://www.w3.org/1999/xlink" x="0px" y="0px"
	 width="146.597px" height="147.332px" viewBox="29.165 25.889 146.597 147.332"
	 enable-background="new 29.165 25.889 146.597 147.332" xml:space="preserve">
<g>
	<path fill="#2194D3" d="M56.341,136.762c-4.812,0-8.726,3.921-8.726,8.741s3.914,8.741,8.726,8.741
		c4.811,0,8.724-3.921,8.724-8.741S61.151,136.762,56.341,136.762z"/>
	<path fill="#2194D3" d="M170.499,167.458c3.36-3.34,5.277-7.971,5.263-12.707c0-4.809-1.868-9.324-5.26-12.718l-33.961-34.02
		l1.093-0.077c21.38-1.497,38.128-19.493,38.128-40.969c0-3.75-0.538-7.545-1.6-11.28c-0.499-1.762-2.124-2.992-3.952-2.992
		c-0.378,0-0.756,0.053-1.122,0.157c-0.675,0.191-1.293,0.554-1.789,1.05l-7.967,7.983c-2.485,2.492-6.039,3.922-9.749,3.922
		c-3.711,0-7.267-1.431-9.754-3.926c-5.377-5.382-5.377-14.148,0-19.539l7.962-7.976c1.028-1.028,1.438-2.54,1.071-3.946
		c-0.36-1.408-1.451-2.53-2.846-2.93c-3.74-1.062-7.531-1.601-11.265-1.601c-22.615,0-41.013,18.428-41.013,41.08
		c0,2.115,0.188,4.328,0.559,6.578l0.044,0.267l-6.012,5.512L61.382,52.333l0.151-0.318c2.425-5.105,1.384-11.209-2.592-15.19
		l-9.71-9.729c-0.776-0.778-1.808-1.206-2.907-1.206c-1.095,0-2.125,0.426-2.9,1.199L30.372,40.162
		c-1.604,1.606-1.604,4.219,0,5.825l9.71,9.729c2.469,2.487,5.893,3.913,9.396,3.913c2.027,0,3.958-0.441,5.772-1.312l0.32-0.153
		l26.686,26.728l-45.145,41.378c-5.118,5.131-7.946,11.968-7.946,19.235c0,7.273,2.828,14.106,7.961,19.242
		c5.129,5.142,11.953,7.973,19.213,7.973s14.133-2.883,19.351-8.118l31.817-34.823l37.611,37.678
		c3.323,3.347,7.933,5.266,12.647,5.266v0.498l0,0l0.043-0.498C162.608,172.723,167.114,170.853,170.499,167.458z M53.127,49.888
		c-0.927,0.926-2.245,1.457-3.616,1.457c-1.371,0-2.688-0.531-3.614-1.456l-6.804-6.813l7.229-7.241l6.805,6.813
		C55.113,44.644,55.113,47.892,53.127,49.888z M69.753,158.901c-3.432,3.438-8.315,5.401-13.414,5.401
		c-5.098,0-9.981-1.963-13.398-5.387c-3.542-3.525-5.565-8.414-5.55-13.414c0-4.991,1.969-9.832,5.403-13.278L101.6,78.328
		c0.042-0.052,0.072-0.087,0.105-0.121c0.1-0.098,0.19-0.205,0.28-0.315c0.087-0.105,0.173-0.207,0.245-0.314
		c0.066-0.102,0.128-0.214,0.188-0.329c0.073-0.133,0.137-0.246,0.187-0.366c0.056-0.128,0.093-0.25,0.13-0.373
		c0.051-0.167,0.082-0.27,0.104-0.375c0.028-0.136,0.043-0.271,0.058-0.41c0.015-0.131,0.026-0.257,0.028-0.385
		c0.002-0.115-0.008-0.23-0.017-0.345c-0.016-0.193-0.033-0.338-0.059-0.482l-0.015-0.12c-0.579-2.541-0.871-5.029-0.871-7.424
		c0-18.106,14.833-32.836,33.065-32.836l1.359,0.006l-2.378,2.381c-8.575,8.601-8.575,22.591,0,31.186
		c4.164,4.171,9.694,6.469,15.572,6.469c5.884,0,11.413-2.296,15.569-6.465l2.343-2.345l0.039,1.152
		c0.005,0.15,0.005,0.301,0.005,0.453c0,18.107-14.707,32.838-32.785,32.838c-2.479-0.006-4.96-0.298-7.374-0.867l-0.155-0.016
		c-0.151-0.028-0.294-0.044-0.441-0.057c-0.135-0.01-0.25-0.019-0.366-0.019c-0.138,0.003-0.284,0.014-0.431,0.033
		c-0.168,0.02-0.258,0.029-0.345,0.047c-0.145,0.031-0.293,0.072-0.437,0.121c-0.169,0.054-0.244,0.078-0.317,0.108
		c-0.143,0.059-0.275,0.131-0.411,0.206c-0.136,0.076-0.22,0.122-0.301,0.175c-0.107,0.073-0.218,0.161-0.324,0.249
		c-0.111,0.091-0.215,0.18-0.314,0.281l-0.099,0.086L69.753,158.901z M150.935,161.629l-36.179-36.242l13.75-13.771l36.181,36.24
		c1.817,1.813,2.855,4.325,2.848,6.894c0.008,2.562-1.03,5.07-2.849,6.88c-1.754,1.756-4.261,2.763-6.876,2.763
		S152.688,163.386,150.935,161.629z"/>
</g>
</svg>
