<?xml version="1.0" encoding="utf-8"?>
<!-- Generator: Adobe Illustrator 16.0.0, SVG Export Plug-In . SVG Version: 6.00 Build 0)  -->
<!DOCTYPE svg PUBLIC "-//W3C//DTD SVG 1.1//EN" "http://www.w3.org/Graphics/SVG/1.1/DTD/svg11.dtd">
<svg version="1.1" id="图层_1" xmlns="http://www.w3.org/2000/svg" xmlns:xlink="http://www.w3.org/1999/xlink" x="0px" y="0px"
	 width="146.68px" height="174.805px" viewBox="26.66 12.598 146.68 174.805" enable-background="new 26.66 12.598 146.68 174.805"
	 xml:space="preserve">
<path fill="#676666" d="M120.703,12.598H79.297c-9.381,0-17.528,6.264-20.028,15.163l-0.02,0.071h-7.687
	c-13.753,0-24.902,11.149-24.902,24.902V162.5c0,13.753,11.149,24.902,24.902,24.902h96.875c13.753,0,24.902-11.149,24.902-24.902
	V52.734c0-13.753-11.149-24.902-24.902-24.902h-7.687l-0.021-0.071C138.23,18.862,130.084,12.598,120.703,12.598z M148.438,40.137
	c6.957,0,12.598,5.64,12.598,12.598v109.767l-0.002,0.207c-0.111,6.87-5.716,12.39-12.596,12.39H51.562l-0.207-0.002
	c-6.87-0.111-12.39-5.716-12.39-12.596V52.733l0.002-0.207c0.111-6.87,5.716-12.39,12.596-12.39h7.799l0.021,0.07
	c2.63,8.705,10.681,14.774,19.914,14.774h41.406c9.233,0,17.283-6.07,19.914-14.774l0.021-0.069H148.438z M117.969,118.652H82.031
	c-3.398,0-6.152,2.754-6.152,6.152v0.391c0,3.398,2.754,6.152,6.152,6.152h35.938c3.398,0,6.152-2.754,6.152-6.152v-0.391
	C124.121,121.406,121.367,118.652,117.969,118.652z M117.969,82.324H82.031c-3.398,0-6.152,2.754-6.152,6.152v0.391
	c0,3.398,2.754,6.152,6.152,6.152h35.938c3.398,0,6.152-2.754,6.152-6.152v-0.391C124.121,85.079,121.367,82.324,117.969,82.324z
	 M120.703,24.902c4.692,0,8.496,3.804,8.496,8.496v0.782l-0.001,0.14c-0.075,4.633-3.855,8.355-8.495,8.355H79.296l-0.14-0.001
	c-4.633-0.075-8.355-3.855-8.355-8.495v-0.782l0.001-0.14c0.075-4.633,3.855-8.355,8.495-8.355H120.703z"/>
</svg>
