<?xml version="1.0" encoding="utf-8"?>
<!-- Generator: Adobe Illustrator 16.0.0, SVG Export Plug-In . SVG Version: 6.00 Build 0)  -->
<!DOCTYPE svg PUBLIC "-//W3C//DTD SVG 1.1//EN" "http://www.w3.org/Graphics/SVG/1.1/DTD/svg11.dtd">
<svg version="1.1" id="图层_1" xmlns="http://www.w3.org/2000/svg" xmlns:xlink="http://www.w3.org/1999/xlink" x="0px" y="0px"
	 width="332px" height="40px" viewBox="0 0 332 40" enable-background="new 0 0 332 40" xml:space="preserve">
<path fill="#FFFFFF" d="M93,40c-11.046,0-20-8.953-20-20C73,8.954,81.954,0,93,0s20,8.954,20,20C113,31.047,104.046,40,93,40z
	 M103.503,15.653v-0.689c0.971-0.689,1.803-1.654,2.497-2.619c-0.832,0.414-1.803,0.689-2.774,0.827
	c0.972-0.552,1.804-1.654,2.22-2.758c-0.972,0.551-1.942,0.966-3.053,1.24c-0.832-0.965-2.22-1.654-3.606-1.654
	c-2.774,0-4.855,2.206-4.855,5.103c0,0.413,0,0.827,0.139,1.24c-4.023-0.275-7.63-2.344-10.127-5.516
	c-0.693,0.553-0.971,1.38-0.971,2.345c0,1.792,0.831,3.446,2.22,4.413c-0.833,0-1.526-0.276-2.221-0.69
	c0,2.482,1.665,4.688,3.886,5.102c-0.417,0.138-0.833,0.138-1.25,0.138c-0.277,0-0.555,0-0.971-0.138
	c0.556,2.067,2.497,3.585,4.578,3.585c-1.71,1.434-3.872,2.215-6.104,2.206c-0.416,0-0.833,0-1.11-0.138
	c2.22,1.518,4.717,2.344,7.491,2.344C98.509,30.27,103.503,22.409,103.503,15.653z"/>
<path fill="#FFFFFF" d="M239,0c-11.045,0-20,8.955-20,20s8.955,20,20,20s20-8.955,20-20S250.045,0,239,0z M234.111,28.335h-4.057
	V15.249h4.057V28.335z M232.055,13.696c-1.449,0.214-2.795-0.786-3.009-2.234c-0.214-1.448,0.786-2.794,2.233-3.008
	c1.449-0.214,2.795,0.786,3.009,2.234c0.205,1.389-0.708,2.696-2.083,2.981c-0.053,0-0.104-0.005-0.156-0.01L232.055,13.696z
	 M248.891,28.335h-4.061v-7.228c0-1.665-0.58-2.78-2.053-2.78c-0.942,0.011-1.775,0.616-2.076,1.509
	c-0.067,0.341-0.067,0.689,0,1.031l-0.006,7.451h-4.164V15.25h3.527l0.194,1.804c0.892-1.353,2.417-2.148,4.035-2.107
	c2.772,0,4.661,1.776,4.661,5.554C248.945,20.5,248.889,28.335,248.891,28.335L248.891,28.335z"/>
<path fill="#FFFFFF" d="M166,0c-11.048,0-20,8.952-20,20c0,8.477,5.273,15.71,12.715,18.627c-0.177-1.584-0.338-4.011,0.065-5.743
	l2.344-9.94c0,0-0.592-1.199-0.592-2.969c0-2.78,1.608-4.857,3.614-4.857c1.704,0,2.534,1.284,2.534,2.82
	c0,1.719-1.097,4.283-1.663,6.661c-0.469,1.99,1.004,3.612,2.961,3.612c3.556,0,6.291-3.75,6.291-9.16
	c0-4.785-3.438-8.133-8.354-8.133c-5.69,0-9.03,4.267-9.03,8.68c0,1.719,0.665,3.562,1.491,4.563
	c0.162,0.193,0.184,0.372,0.137,0.572c-0.186,0.756-0.371,1.512-0.553,2.268c-0.092,0.37-0.293,0.448-0.672,0.268
	c-2.5-1.16-4.062-4.813-4.062-7.75c0-6.307,4.583-12.1,13.217-12.1c6.94,0,12.331,4.939,12.331,11.555
	c0,6.889-4.351,12.434-10.379,12.434c-2.022,0-3.933-1.047-4.583-2.29c0,0-1.002,3.813-1.25,4.751
	c-0.448,1.738-1.667,3.914-2.486,5.242c1.919,0.593,3.916,0.894,5.925,0.892c11.049,0,20-8.951,20-20S177.049,0,166,0z"/>
<path fill="#FFFFFF" d="M20,0C8.947,0,0,8.947,0,20s8.947,20,20,20s20-8.947,20-20S31.053,0,20,0z M24.795,20h-3.101v10.525h-4.606
	V20h-2.351v-3.626h2.351v-2.212c0-2.918,1.316-4.688,4.981-4.688h3.102V13.1h-1.88c-1.411,0-1.503,0.532-1.503,1.415v1.77h3.477
	L24.795,20L24.795,20z"/>
<g>
	<path fill="#FFFFFF" d="M312,0c-11.063,0-20,8.938-20,20c0,11.063,8.938,20,20,20s20-8.938,20-20C332,8.938,323.063,0,312,0z
		 M324.5,25.063c0,4.125-3.313,7.438-7.438,7.438h-10.125c-4.063,0-7.313-3.25-7.438-7.25v-10.5c0.125-4.063,3.438-7.25,7.438-7.25
		h10.125c4.125,0,7.438,3.313,7.438,7.438V25.063z"/>
	<path fill="#FFFFFF" d="M317.063,10h-10.125c-2.75,0-4.938,2.188-4.938,4.938v10.125c0,2.75,2.188,4.938,4.938,4.938h10.125
		c2.75,0,4.938-2.188,4.938-4.938V14.938C322,12.25,319.75,10,317.063,10z M312.313,26.875c-3.625,0-6.563-2.938-6.563-6.563
		c0-3.625,2.938-6.563,6.563-6.563s6.563,2.938,6.563,6.563C318.876,23.938,315.938,26.875,312.313,26.875z M318.563,15
		c-0.875,0-1.563-0.688-1.563-1.563s0.688-1.563,1.563-1.563s1.563,0.688,1.563,1.563S319.438,15,318.563,15z"/>
	<path fill="#FFFFFF" d="M312.314,16.311c-2.211-0.001-4.002,1.789-4.003,3.999c0,0.001,0,0.002,0,0.003c0,2.208,1.791,4,4,4
		c2.21,0,4-1.791,4-4C316.313,18.104,314.523,16.312,312.314,16.311z"/>
</g>
</svg>
