<?xml version="1.0" encoding="utf-8"?>
<!-- Generator: Adobe Illustrator 16.0.0, SVG Export Plug-In . SVG Version: 6.00 Build 0)  -->
<!DOCTYPE svg PUBLIC "-//W3C//DTD SVG 1.1//EN" "http://www.w3.org/Graphics/SVG/1.1/DTD/svg11.dtd">
<svg version="1.1" id="图层_1" xmlns="http://www.w3.org/2000/svg" xmlns:xlink="http://www.w3.org/1999/xlink" x="0px" y="0px"
	 width="179.2px" height="151.8px" viewBox="10.4 28.7 179.2 151.8" enable-background="new 10.4 28.7 179.2 151.8"
	 xml:space="preserve">
<g>
	<path fill="#2194D3" d="M160.4,147H148.3c-3.084,0-5,1.878-5,4.9c0,2.979,1.878,4.902,4.783,4.902l0.188-0.003H160.4
		c3.084,0,5-1.877,5-4.899C165.4,148.924,163.438,147,160.4,147z"/>
	<path fill="#2194D3" d="M160.4,52.3H148.3c-3.037,0-5,1.923-5,4.9c0,2.977,1.963,4.9,5,4.9H160.4c3.084,0,5-1.877,5-4.9
		C165.4,54.223,163.438,52.3,160.4,52.3z"/>
	<path fill="#2194D3" d="M160.4,99.7H148.3c-3.037,0-5,1.923-5,4.899s1.963,4.9,5,4.9H160.4c3.084,0,5-1.878,5-4.9
		S163.484,99.7,160.4,99.7z"/>
	<path fill="#2194D3" d="M189.6,39.5c0-6.561-4.356-10.8-11.1-10.8h-157c-6.639,0-11.1,4.34-11.1,10.8v130.2
		c0,6.561,4.357,10.8,11.1,10.8h157c6.639,0,11.1-4.34,11.1-10.8V39.5z M179.5,170.7h-159v-37.5h159V170.7z M179.5,123.299
		l-0.999,0.001L20.5,123.401V85.8h159V123.299z M179.5,76h-159V38.5h159V76z"/>
</g>
</svg>
