<?xml version="1.0" encoding="utf-8"?>
<!-- Generator: Adobe Illustrator 16.0.0, SVG Export Plug-In . SVG Version: 6.00 Build 0)  -->
<!DOCTYPE svg PUBLIC "-//W3C//DTD SVG 1.1//EN" "http://www.w3.org/Graphics/SVG/1.1/DTD/svg11.dtd">
<svg version="1.1" id="图层_1" xmlns="http://www.w3.org/2000/svg" xmlns:xlink="http://www.w3.org/1999/xlink" x="0px" y="0px"
	 width="184.704px" height="172.223px" viewBox="0 0 184.704 172.223" enable-background="new 0 0 184.704 172.223"
	 xml:space="preserve">
<g>
	<path fill="#2194D3" d="M80.791,1.777c6.346-0.652,12.841,0.103,18.854,2.256c6.883,2.451,13.109,6.697,17.906,12.205
		c4.957,5.653,8.389,12.633,9.809,20.018c1.52,7.845,0.828,16.117-2.049,23.581c-2.586,6.764-6.928,12.839-12.473,17.492
		c-5.506,4.635-12.186,7.865-19.25,9.246c-8.502,1.686-17.511,0.749-25.455-2.723c-8.867-3.833-16.346-10.76-20.851-19.301
		c-3.672-6.889-5.368-14.796-4.904-22.584C42.781,34.707,45.084,27.565,49,21.44c3.827-6.014,9.172-11.055,15.406-14.513
		C69.445,4.13,75.052,2.357,80.791,1.777 M82.436,9.233c-9.057,0.672-17.754,5.054-23.722,11.893
		c-4.371,4.931-7.319,11.11-8.367,17.615c-1.203,7.243-0.083,14.868,3.222,21.433c4.12,8.372,11.698,14.952,20.563,17.863
		c7.231,2.401,15.244,2.373,22.455-0.092c6.785-2.303,12.816-6.727,17.068-12.491c3.994-5.376,6.4-11.909,6.834-18.592
		c0.477-6.796-1.08-13.715-4.424-19.65c-3.527-6.287-9.018-11.453-15.506-14.584C94.959,9.912,88.634,8.736,82.436,9.233z
		 M70.869,95.473c16.245-3.134,33.503-0.811,48.298,6.624c-5.473,3.724-10.006,8.819-13.027,14.71
		c-3.143,6.073-4.646,12.975-4.352,19.802c0.266,7.005,2.459,13.922,6.258,19.813c3.877,6.045,9.432,10.987,15.863,14.177H9.183
		c-0.039-8.212,1.228-16.437,3.805-24.239c4.303-13.131,12.303-25.013,22.808-33.986C45.756,103.828,57.965,97.917,70.869,95.473
		 M61.508,105.893c-11.444,4.195-21.662,11.579-29.365,21.011c-8.406,10.223-13.696,22.953-15.019,36.122h86.212
		c-3.314-4.511-5.826-9.609-7.348-14.995c-2.279-7.995-2.41-16.597-0.375-24.656c1.725-6.86,5.035-13.312,9.564-18.74
		C90.998,100.317,75.416,100.758,61.508,105.893z"/>
	<path fill="#2194D3" d="M130.522,172.148H7.641l-0.007-1.542c-0.041-8.487,1.266-16.809,3.883-24.733
		c4.406-13.443,12.454-25.437,23.273-34.679c10.242-8.785,22.619-14.748,35.791-17.243c4.763-0.919,9.67-1.386,14.582-1.386
		c12.094,0,24.094,2.817,34.7,8.147l2.355,1.184l-2.18,1.482c-5.295,3.604-9.623,8.491-12.52,14.136
		c-3.021,5.839-4.467,12.417-4.182,19.028c0.256,6.758,2.336,13.339,6.012,19.039c3.734,5.82,9.006,10.532,15.248,13.628
		L130.522,172.148z M10.741,169.048h107.462c-4.568-3.123-8.473-7.128-11.463-11.79c-3.975-6.164-6.225-13.285-6.502-20.591
		c-0.309-7.143,1.256-14.26,4.523-20.573c2.73-5.321,6.641-10.023,11.395-13.723c-9.592-4.394-20.252-6.706-30.995-6.706
		c-4.715,0-9.425,0.447-14,1.329c-12.646,2.396-24.524,8.12-34.357,16.555c-10.389,8.874-18.115,20.386-22.344,33.292
		C12.107,153.97,10.858,161.432,10.741,169.048z M106.399,164.575H15.411l0.171-1.705c1.348-13.419,6.805-26.542,15.364-36.951
		c7.986-9.778,18.372-17.208,30.028-21.481c7.723-2.852,15.887-4.298,24.265-4.298c6.968,0,13.828,1.014,20.39,3.012l2.236,0.681
		l-1.496,1.795c-4.398,5.271-7.598,11.538-9.252,18.125c-1.98,7.835-1.854,16.083,0.361,23.854
		c1.473,5.211,3.863,10.089,7.105,14.502L106.399,164.575z M18.861,161.476h81.524c-2.609-4.044-4.584-8.412-5.887-13.024
		c-2.365-8.291-2.499-17.095-0.387-25.457c1.578-6.279,4.469-12.287,8.41-17.507c-5.596-1.492-11.397-2.247-17.283-2.247
		c-8.01,0-15.814,1.382-23.195,4.106c-11.139,4.083-21.063,11.185-28.701,20.537C25.528,137.389,20.422,149.256,18.861,161.476z
		 M85.241,88.94c-6.107,0-12.238-1.269-17.729-3.668c-9.231-3.991-16.904-11.094-21.602-19.998
		c-3.808-7.145-5.566-15.238-5.081-23.4c0.418-7.543,2.792-14.9,6.863-21.269c3.977-6.248,9.496-11.448,15.96-15.034
		c5.216-2.896,11.088-4.741,16.981-5.336C82.148,0.079,83.692,0,85.221,0c5.149,0,10.178,0.866,14.946,2.573
		c7.148,2.545,13.566,6.919,18.555,12.646c5.17,5.897,8.686,13.071,10.16,20.744c1.574,8.118,0.82,16.795-2.123,24.431
		c-2.682,7.01-7.15,13.278-12.924,18.122c-5.746,4.839-12.646,8.152-19.949,9.58C91.062,88.656,88.152,88.94,85.241,88.94z
		 M85.221,3.1c-1.423,0-2.86,0.074-4.272,0.219c-5.479,0.554-10.939,2.27-15.791,4.963c-6.014,3.336-11.149,8.174-14.851,13.99
		c-3.786,5.922-5.992,12.761-6.381,19.78c-0.452,7.597,1.182,15.123,4.724,21.77c4.372,8.287,11.508,14.894,20.099,18.607
		c7.542,3.297,16.39,4.243,24.539,2.625c6.791-1.327,13.205-4.408,18.553-8.911c5.371-4.508,9.529-10.337,12.023-16.86
		c2.738-7.104,3.439-15.175,1.975-22.732c-1.373-7.134-4.641-13.804-9.451-19.291c-4.645-5.331-10.611-9.399-17.262-11.767
		C94.69,3.905,90.013,3.1,85.221,3.1z M85.227,81.365C85.227,81.365,85.227,81.365,85.227,81.365c-3.973,0-7.871-0.625-11.583-1.858
		c-9.313-3.059-17.138-9.857-21.465-18.65c-3.429-6.81-4.624-14.759-3.36-22.371c1.083-6.722,4.185-13.255,8.736-18.39
		c6.267-7.181,15.296-11.708,24.767-12.41c0.952-0.076,1.93-0.115,2.899-0.115c5.539,0,11.077,1.266,16.015,3.662
		c6.756,3.26,12.504,8.666,16.182,15.22c3.473,6.164,5.113,13.451,4.619,20.517c-0.451,6.924-2.984,13.819-7.137,19.408
		c-4.432,6.01-10.76,10.64-17.814,13.035C93.293,80.708,89.304,81.365,85.227,81.365z M85.22,10.672
		c-0.886,0-1.781,0.036-2.66,0.106c-8.673,0.644-16.936,4.786-22.678,11.367c-4.173,4.709-7.013,10.687-8.004,16.843
		c-1.158,6.976-0.065,14.25,3.076,20.489c3.967,8.062,11.131,14.286,19.662,17.087c6.893,2.29,14.617,2.256,21.471-0.086
		c6.463-2.194,12.258-6.435,16.32-11.944c3.803-5.119,6.123-11.429,6.535-17.772c0.453-6.475-1.049-13.145-4.229-18.789
		c-3.369-6.008-8.637-10.96-14.828-13.949C95.364,11.83,90.293,10.672,85.22,10.672z"/>
</g>
<g>
	<path fill="#2194D3" d="M140.19,100.916c7.18-0.291,14.426,1.787,20.363,5.83c4.906,3.328,8.928,7.948,11.521,13.279
		c4.357,8.81,4.58,19.529,0.625,28.525c-2.713,6.258-7.359,11.656-13.143,15.269c-6.781,4.309-15.119,6.034-23.057,4.85
		c-6.223-0.888-12.174-3.578-16.975-7.636c-4.578-3.832-8.117-8.896-10.129-14.516c-2.459-6.769-2.668-14.322-0.621-21.221
		c1.711-5.821,5.027-11.161,9.48-15.28C124.159,104.478,132.1,101.18,140.19,100.916 M140.03,108.508
		c-5.463,0.271-10.811,2.317-15.076,5.736c-4.605,3.661-7.949,8.894-9.287,14.629c-1.635,6.812-0.412,14.253,3.35,20.163
		c3.264,5.216,8.396,9.234,14.254,11.127c5.883,1.924,12.439,1.692,18.164-0.66c5.074-2.065,9.467-5.748,12.396-10.381
		c3.484-5.439,4.836-12.189,3.744-18.557c-1.037-6.379-4.561-12.284-9.609-16.308C152.958,110.225,146.444,108.137,140.03,108.508
		L140.03,108.508z"/>
	<path fill="#2194D3" d="M141.438,170.583c-1.732,0-3.471-0.128-5.166-0.381c-6.436-0.918-12.742-3.754-17.748-7.985
		c-4.811-4.028-8.475-9.278-10.586-15.177c-2.566-7.063-2.797-14.943-0.648-22.184c1.797-6.114,5.225-11.641,9.914-15.978
		c6.146-5.768,14.51-9.237,22.936-9.512c0.451-0.019,0.916-0.028,1.381-0.028c7.035,0,14.104,2.176,19.906,6.126
		c5.162,3.503,9.328,8.304,12.043,13.882c4.561,9.221,4.805,20.374,0.65,29.828c-2.828,6.521-7.709,12.192-13.74,15.959
		C154.852,168.646,148.122,170.583,141.438,170.583z M141.52,102.44c-0.422,0-0.846,0.008-1.268,0.025
		c-7.697,0.251-15.322,3.415-20.936,8.682c-4.287,3.965-7.414,9.007-9.053,14.587c-1.963,6.613-1.754,13.806,0.59,20.255
		c1.928,5.387,5.271,10.176,9.666,13.856c4.572,3.864,10.324,6.451,16.199,7.29c7.563,1.125,15.654-0.588,22.008-4.624
		c5.514-3.443,9.967-8.618,12.551-14.576c3.793-8.631,3.57-18.805-0.592-27.222c-2.482-5.101-6.285-9.484-11.002-12.685
		C154.389,104.424,147.938,102.44,141.52,102.44z M141.446,163.004L141.446,163.004c-2.969,0-5.883-0.46-8.656-1.367
		c-6.146-1.985-11.646-6.279-15.088-11.778c-3.996-6.28-5.289-14.064-3.543-21.347c1.416-6.066,4.906-11.567,9.83-15.48
		c4.525-3.629,10.197-5.786,15.963-6.071c0.506-0.029,1.023-0.044,1.543-0.044c6.336,0,12.531,2.179,17.443,6.135
		c5.371,4.28,9.08,10.575,10.166,17.267c1.156,6.735-0.291,13.899-3.967,19.641c-3.098,4.896-7.758,8.799-13.119,10.98
		C148.731,162.289,145.075,163.004,141.446,163.004z M141.495,110.016c-0.459,0-0.918,0.013-1.375,0.04
		c-5.133,0.254-10.17,2.171-14.197,5.397c-4.383,3.485-7.488,8.374-8.746,13.772c-1.531,6.384-0.355,13.476,3.146,18.979
		c3.066,4.9,7.957,8.718,13.424,10.484c5.486,1.792,11.787,1.563,17.098-0.619c4.773-1.942,8.918-5.413,11.678-9.775
		c3.27-5.106,4.553-11.47,3.525-17.467c-0.969-5.953-4.266-11.546-9.049-15.357C152.629,111.951,147.125,110.016,141.495,110.016z"
		/>
</g>
</svg>
