<?xml version="1.0" encoding="utf-8"?>
<!-- Generator: Adobe Illustrator 16.0.0, SVG Export Plug-In . SVG Version: 6.00 Build 0)  -->
<!DOCTYPE svg PUBLIC "-//W3C//DTD SVG 1.1//EN" "http://www.w3.org/Graphics/SVG/1.1/DTD/svg11.dtd">
<svg version="1.1" id="图层_1" xmlns="http://www.w3.org/2000/svg" xmlns:xlink="http://www.w3.org/1999/xlink" x="0px" y="0px"
	 width="205.393px" height="151.8px" viewBox="-22.71 0 205.393 151.8" enable-background="new -22.71 0 205.393 151.8"
	 xml:space="preserve">
<g>
	<path fill="#2194D3" d="M153.008,40.845c-0.659-0.914-1.728-1.469-2.857-1.48h-21.822V4.958c0-1.936-1.574-3.512-3.513-3.512
		H-8.254c-1.936,0-3.513,1.576-3.513,3.512v24.529c0,1.937,1.576,3.513,3.513,3.513c1.938,0,3.512-1.577,3.512-3.513V8.471h126.101
		v106.403H56.278l-0.59-0.654c-4.165-4.639-10.03-7.301-16.091-7.301c-6.06,0-11.925,2.66-16.09,7.301l-0.588,0.654H-4.742V95.449
		c0-1.937-1.575-3.512-3.513-3.512c-1.937,0-3.513,1.575-3.513,3.512v22.938c0,1.938,1.576,3.514,3.513,3.514h27.084l-0.513,2.39
		c-0.298,1.395-0.45,2.844-0.45,4.306c0,11.981,9.724,21.731,21.677,21.731c11.951,0,21.675-9.75,21.675-21.731
		c0-1.483-0.147-2.894-0.451-4.306l-0.512-2.39h68.43l-0.514,2.392c-0.299,1.389-0.45,2.838-0.45,4.304
		c0,11.981,9.751,21.731,21.731,21.731c11.952,0,21.676-9.75,21.676-21.731c0-1.481-0.146-2.89-0.448-4.306l-0.514-2.39h7.549
		c1.936,0,3.512-1.575,3.512-3.514l0.002-37.031c0.031-0.615-0.203-1.341-0.63-1.941L153.008,40.845z M53.063,134.382
		c-1.512,3.605-4.339,6.406-7.958,7.886c-1.766,0.722-3.627,1.087-5.534,1.087c-3.951-0.008-7.632-1.54-10.397-4.315
		c-2.766-2.774-4.284-6.46-4.277-10.38c0.003-1.881,0.364-3.724,1.07-5.47c2.232-5.578,7.563-9.188,13.58-9.188
		c1.862,0,3.688,0.355,5.43,1.051c3.696,1.478,6.665,4.446,8.145,8.144C54.595,126.8,54.577,130.779,53.063,134.382z
		 M159.917,138.968c-2.716,2.782-6.354,4.342-10.237,4.387h-0.225c-8.11,0-14.706-6.599-14.706-14.707
		c0-1.935,0.367-3.78,1.087-5.487c2.222-5.551,7.555-9.159,13.568-9.159c1.862,0,3.689,0.355,5.43,1.051
		c3.695,1.478,6.665,4.444,8.145,8.144c0.711,1.748,1.074,3.585,1.074,5.45C164.1,132.513,162.63,136.184,159.917,138.968z
		 M174.315,114.93h-8.123l-0.592-0.656c-4.164-4.639-10.03-7.303-16.09-7.303c-6.062,0-11.924,2.664-16.092,7.303
		c-0.498,0.551-0.95,1.098-1.424,1.732l-3.557,4.737V46.39h20.002l25.873,36.188v32.353H174.315z"/>
	<path fill="#2194D3" d="M149.454,151.777c-12.782,0-23.182-10.399-23.182-23.182c0-1.57,0.162-3.12,0.482-4.608l0.137-0.637H62.05
		l0.136,0.636c0.325,1.51,0.483,3.019,0.483,4.609c0,12.782-10.374,23.182-23.125,23.182c-12.752,0-23.127-10.399-23.127-23.182
		c0-1.56,0.163-3.11,0.482-4.608l0.137-0.637h-25.29c-2.736,0-4.963-2.227-4.963-4.964V95.449c0-2.736,2.227-4.962,4.963-4.962
		s4.963,2.226,4.963,4.962v17.975h25.564l0.156-0.173c4.439-4.945,10.697-7.782,17.169-7.782c6.471,0,12.729,2.837,17.17,7.782
		l0.156,0.173h62.986V9.921H-3.292v19.567c0,2.737-2.226,4.963-4.962,4.963c-2.736,0-4.963-2.227-4.963-4.963V4.958
		c0-2.736,2.227-4.962,4.963-4.962h133.07c2.736,0,4.963,2.226,4.963,4.962v32.956h20.372c1.603,0.017,3.105,0.795,4.033,2.083
		L181.78,78.57c0.62,0.873,0.946,1.913,0.898,2.858v36.958c0,2.737-2.226,4.964-4.962,4.964h-5.754l0.137,0.635
		c0.323,1.519,0.48,3.025,0.48,4.61C172.58,141.377,162.206,151.777,149.454,151.777z M130.472,120.45h0.009l-0.891,4.146
		c-0.277,1.288-0.418,2.634-0.418,3.999c0,11.184,9.098,20.281,20.281,20.281c11.152,0,20.226-9.098,20.226-20.281
		c0-1.379-0.136-2.688-0.416-4.004l-0.891-4.142h9.344c1.137,0,2.062-0.926,2.062-2.063l0.002-37.031
		c0.015-0.313-0.094-0.725-0.361-1.102l-27.59-38.564c-0.388-0.539-1.022-0.867-1.692-0.875l-23.258,0V4.958
		c0-1.137-0.925-2.062-2.063-2.062H-8.254c-1.137,0-2.063,0.925-2.063,2.062v24.529c0,1.138,0.925,2.063,2.063,2.063
		c1.137,0,2.062-0.925,2.062-2.063V7.021h129.001v109.303H55.633l-1.022-1.134c-3.893-4.336-9.365-6.821-15.014-6.821
		c-5.65,0-11.121,2.485-15.011,6.819l-1.021,1.136H-6.192V95.449c0-1.137-0.925-2.062-2.063-2.062s-2.063,0.925-2.063,2.062v22.938
		c0,1.138,0.925,2.063,2.063,2.063h28.878l-0.889,4.144c-0.277,1.299-0.418,2.646-0.418,4.002c0,11.184,9.074,20.281,20.227,20.281
		c11.152,0,20.225-9.098,20.225-20.281c0-1.384-0.137-2.692-0.418-4.001l-0.889-4.145h68.526v-75.51h22.198l26.577,37.173v34.268
		h-10.216l-1.024-1.136c-3.894-4.337-9.364-6.823-15.013-6.823c-5.646,0-11.118,2.486-15.014,6.821
		c-0.483,0.535-0.908,1.053-1.34,1.631L130.472,120.45z M129.888,47.84v68.557l0.947-1.261c0.484-0.65,0.964-1.234,1.508-1.835
		c4.441-4.943,10.699-7.78,17.167-7.78c6.471,0,12.729,2.837,17.169,7.784l0.157,0.175h6.026V83.042L147.694,47.84H129.888z
		 M149.456,144.805c-8.908,0-16.156-7.248-16.156-16.157c0-2.125,0.404-4.161,1.201-6.051c2.438-6.093,8.293-10.046,14.904-10.046
		c2.043,0,4.051,0.389,5.968,1.154c4.064,1.625,7.327,4.888,8.953,8.952c0.78,1.919,1.178,3.937,1.178,5.988
		c0.052,4.24-1.563,8.271-4.548,11.334c-2.988,3.063-6.987,4.775-11.259,4.825H149.456z M149.405,115.452
		c-5.419,0-10.217,3.237-12.223,8.248c-0.655,1.556-0.982,3.212-0.982,4.948c0,7.31,5.946,13.257,13.256,13.257h0.225
		c3.479-0.04,6.753-1.442,9.199-3.949c2.443-2.508,3.767-5.808,3.724-9.292c0-1.693-0.325-3.343-0.967-4.922
		c-1.336-3.338-4.01-6.012-7.34-7.343C152.723,115.77,151.078,115.452,149.405,115.452z M39.572,144.805
		c-4.33-0.009-8.386-1.692-11.425-4.742c-3.038-3.048-4.707-7.099-4.7-11.406c0.003-2.066,0.399-4.089,1.176-6.011
		c2.454-6.13,8.312-10.095,14.924-10.095c2.041,0,4.048,0.389,5.967,1.154c4.064,1.624,7.327,4.887,8.954,8.951
		c1.618,3.96,1.595,8.327-0.068,12.287c-1.662,3.962-4.768,7.04-8.746,8.666C43.714,144.403,41.668,144.805,39.572,144.805z
		 M39.547,115.452c-5.419,0-10.221,3.249-12.233,8.277c-0.639,1.58-0.963,3.238-0.966,4.933c-0.006,3.533,1.362,6.855,3.854,9.354
		c2.492,2.501,5.821,3.882,9.374,3.889c1.715,0,3.392-0.329,4.982-0.979c3.26-1.334,5.807-3.856,7.169-7.104
		c1.363-3.247,1.382-6.825,0.053-10.077c-1.337-3.341-4.011-6.015-7.34-7.346C42.864,115.77,41.218,115.452,39.547,115.452z"/>
</g>
<g>
	<path fill="#2194D3" d="M30.049,42H-8.309c-1.937,0-3.512,1.576-3.512,3.512c0,1.937,1.575,3.513,3.512,3.513h38.358
		c1.937,0,3.513-1.576,3.513-3.513C33.562,43.576,31.986,42,30.049,42z"/>
	<path fill="#2194D3" d="M30.049,50.476H-8.309c-2.736,0-4.962-2.227-4.962-4.963s2.226-4.962,4.962-4.962h38.358
		c2.737,0,4.963,2.226,4.963,4.962S32.786,50.476,30.049,50.476z M-8.309,43.451c-1.137,0-2.062,0.925-2.062,2.062
		s0.925,2.063,2.062,2.063h38.358c1.138,0,2.063-0.925,2.063-2.063s-0.925-2.062-2.063-2.062H-8.309z"/>
</g>
<g>
	<path fill="#2194D3" d="M29.446,59.177h-47.193c-1.936,0-3.513,1.576-3.513,3.512c0,1.938,1.576,3.512,3.513,3.512h47.194
		c1.97,0,3.512-1.544,3.512-3.512C32.958,60.752,31.382,59.177,29.446,59.177z"/>
	<path fill="#2194D3" d="M29.447,67.651h-47.194c-2.736,0-4.963-2.226-4.963-4.962s2.227-4.962,4.963-4.962h47.193
		c2.736,0,4.963,2.226,4.963,4.962C34.409,65.472,32.229,67.651,29.447,67.651z M-17.747,60.627c-1.137,0-2.063,0.925-2.063,2.062
		s0.925,2.062,2.063,2.062h47.194c1.175,0,2.062-0.886,2.062-2.062c0-1.137-0.925-2.062-2.063-2.062H-17.747z"/>
</g>
<g>
	<path fill="#2194D3" d="M58.256,77.177h-68.651c-1.935,0-3.512,1.573-3.512,3.512c0,1.937,1.576,3.51,3.512,3.51h68.651
		c1.936,0,3.513-1.573,3.513-3.51C61.769,78.75,60.192,77.177,58.256,77.177z"/>
	<path fill="#2194D3" d="M58.256,85.649h-68.651c-2.736,0-4.962-2.226-4.962-4.96c0-2.736,2.226-4.962,4.962-4.962h68.651
		c2.736,0,4.963,2.226,4.963,4.962C63.219,83.423,60.993,85.649,58.256,85.649z M-10.395,78.627c-1.137,0-2.062,0.925-2.062,2.062
		c0,1.136,0.925,2.06,2.062,2.06h68.651c1.137,0,2.063-0.924,2.063-2.06c0-1.137-0.925-2.062-2.063-2.062H-10.395z"/>
</g>
</svg>
