<?xml version="1.0" encoding="utf-8"?>
<!-- Generator: Adobe Illustrator 16.0.0, SVG Export Plug-In . SVG Version: 6.00 Build 0)  -->
<!DOCTYPE svg PUBLIC "-//W3C//DTD SVG 1.1//EN" "http://www.w3.org/Graphics/SVG/1.1/DTD/svg11.dtd">
<svg version="1.1" id="图层_1" xmlns="http://www.w3.org/2000/svg" xmlns:xlink="http://www.w3.org/1999/xlink" x="0px" y="0px"
	 width="175px" height="174px" viewBox="12 13 175 174" enable-background="new 12 13 175 174" xml:space="preserve">
<path fill="#676666" d="M155.518,13H43.483C26.13,12.993,12.046,27.035,12,44.388v111.223c0.046,17.354,14.13,31.396,31.483,31.389
	h112.035c17.353,0.006,31.436-14.035,31.482-31.389V44.388C186.953,27.035,172.87,12.994,155.518,13z M174.533,157.004
	c-0.025,9.706-7.902,17.56-17.608,17.557H42.08c-9.705,0.003-17.582-7.851-17.607-17.557V42.995
	c0.025-9.706,7.902-17.559,17.607-17.555h114.841c9.707-0.007,17.588,7.847,17.612,17.555V157.004z"/>
<path fill="#676666" d="M86.369,78.259c3.639,0.002,6.59-2.945,6.593-6.583c0.002-3.639-2.945-6.59-6.584-6.592
	c-0.003,0-0.006,0-0.009,0H56.437c-5.709-0.006-10.344,4.614-10.357,10.323v49.189c0.014,5.709,4.647,10.326,10.354,10.322h29.933
	c3.639,0.002,6.59-2.944,6.592-6.584c0.002-3.638-2.945-6.59-6.584-6.592c-0.002,0-0.006,0-0.008,0H59.298V106.59h27.069
	c3.639,0.003,6.59-2.945,6.592-6.583c0.002-3.639-2.945-6.59-6.584-6.592c-0.002,0-0.006,0-0.008,0H59.298V78.263h27.069
	L86.369,78.259z"/>
<path fill="#676666" d="M148.159,65.741c-3.644-0.005-6.602,2.944-6.607,6.588l0,0v35.002l-21.896-37.705l-0.074-0.124
	c-2.336-3.823-7.327-5.028-11.15-2.692c-2.402,1.468-3.872,4.078-3.881,6.894v53.966c0.106,3.648,3.148,6.52,6.797,6.414
	c3.5-0.102,6.313-2.915,6.415-6.414V92.668l21.903,37.706l0.072,0.12c1.451,2.416,4.062,3.893,6.88,3.893
	c0.755-0.002,1.506-0.104,2.232-0.309c3.512-0.95,5.942-4.146,5.92-7.782V72.329c-0.006-3.644-2.964-6.593-6.609-6.588
	C148.161,65.741,148.16,65.741,148.159,65.741L148.159,65.741z"/>
</svg>
